<mxfile host="app.diagrams.net" modified="2022-10-18T01:03:00.906Z" agent="5.0 (Windows)" etag="wQ8K7FqHmnwjt0yledVj" version="20.4.0" type="github">
  <diagram id="C5RBs43oDa-KdzZeNtuy" name="Page-1">
    <mxGraphModel dx="1422" dy="780" grid="1" gridSize="10" guides="1" tooltips="1" connect="1" arrows="1" fold="1" page="1" pageScale="1" pageWidth="1169" pageHeight="1654" math="0" shadow="0">
      <root>
        <mxCell id="WIyWlLk6GJQsqaUBKTNV-0" />
        <mxCell id="WIyWlLk6GJQsqaUBKTNV-1" parent="WIyWlLk6GJQsqaUBKTNV-0" />
        <mxCell id="nQuOsH5TMNyaBFGdxfSk-2" value="" style="edgeStyle=orthogonalEdgeStyle;rounded=0;orthogonalLoop=1;jettySize=auto;html=1;" edge="1" parent="WIyWlLk6GJQsqaUBKTNV-1" source="nQuOsH5TMNyaBFGdxfSk-0" target="nQuOsH5TMNyaBFGdxfSk-1">
          <mxGeometry relative="1" as="geometry" />
        </mxCell>
        <mxCell id="nQuOsH5TMNyaBFGdxfSk-0" value="开始" style="rounded=1;whiteSpace=wrap;html=1;" vertex="1" parent="WIyWlLk6GJQsqaUBKTNV-1">
          <mxGeometry x="30" y="68" width="120" height="60" as="geometry" />
        </mxCell>
        <mxCell id="nQuOsH5TMNyaBFGdxfSk-4" value="" style="edgeStyle=orthogonalEdgeStyle;rounded=0;orthogonalLoop=1;jettySize=auto;html=1;" edge="1" parent="WIyWlLk6GJQsqaUBKTNV-1" source="nQuOsH5TMNyaBFGdxfSk-1" target="nQuOsH5TMNyaBFGdxfSk-3">
          <mxGeometry relative="1" as="geometry" />
        </mxCell>
        <mxCell id="nQuOsH5TMNyaBFGdxfSk-1" value="&lt;div&gt;查询&lt;/div&gt;&lt;div&gt;importPermitAppl&lt;br&gt;&lt;/div&gt;" style="rounded=1;whiteSpace=wrap;html=1;" vertex="1" parent="WIyWlLk6GJQsqaUBKTNV-1">
          <mxGeometry x="190" y="68" width="120" height="60" as="geometry" />
        </mxCell>
        <mxCell id="nQuOsH5TMNyaBFGdxfSk-5" style="edgeStyle=orthogonalEdgeStyle;rounded=0;orthogonalLoop=1;jettySize=auto;html=1;exitX=0.5;exitY=0;exitDx=0;exitDy=0;entryX=0.5;entryY=0;entryDx=0;entryDy=0;" edge="1" parent="WIyWlLk6GJQsqaUBKTNV-1" source="nQuOsH5TMNyaBFGdxfSk-3" target="nQuOsH5TMNyaBFGdxfSk-0">
          <mxGeometry relative="1" as="geometry">
            <Array as="points">
              <mxPoint x="450" y="30" />
              <mxPoint x="90" y="30" />
            </Array>
          </mxGeometry>
        </mxCell>
        <mxCell id="nQuOsH5TMNyaBFGdxfSk-6" value="yes" style="edgeLabel;html=1;align=center;verticalAlign=middle;resizable=0;points=[];" vertex="1" connectable="0" parent="nQuOsH5TMNyaBFGdxfSk-5">
          <mxGeometry x="-0.3989" y="-3" relative="1" as="geometry">
            <mxPoint x="1" as="offset" />
          </mxGeometry>
        </mxCell>
        <mxCell id="nQuOsH5TMNyaBFGdxfSk-8" value="" style="edgeStyle=orthogonalEdgeStyle;rounded=0;orthogonalLoop=1;jettySize=auto;html=1;entryX=0;entryY=0.5;entryDx=0;entryDy=0;" edge="1" parent="WIyWlLk6GJQsqaUBKTNV-1" source="nQuOsH5TMNyaBFGdxfSk-3" target="nQuOsH5TMNyaBFGdxfSk-11">
          <mxGeometry relative="1" as="geometry">
            <mxPoint x="730" y="98" as="targetPoint" />
          </mxGeometry>
        </mxCell>
        <mxCell id="nQuOsH5TMNyaBFGdxfSk-9" value="no" style="edgeLabel;html=1;align=center;verticalAlign=middle;resizable=0;points=[];" vertex="1" connectable="0" parent="nQuOsH5TMNyaBFGdxfSk-8">
          <mxGeometry x="-0.2333" y="-2" relative="1" as="geometry">
            <mxPoint as="offset" />
          </mxGeometry>
        </mxCell>
        <mxCell id="nQuOsH5TMNyaBFGdxfSk-3" value="&lt;div&gt;permitStatus!=submitted&lt;/div&gt;&lt;div&gt;&amp;amp;&amp;amp;&lt;/div&gt;&lt;div&gt;permitStatus!=in-use&lt;/div&gt;" style="rhombus;whiteSpace=wrap;html=1;" vertex="1" parent="WIyWlLk6GJQsqaUBKTNV-1">
          <mxGeometry x="350" y="40.5" width="200" height="115" as="geometry" />
        </mxCell>
        <mxCell id="nQuOsH5TMNyaBFGdxfSk-58" value="" style="edgeStyle=orthogonalEdgeStyle;rounded=0;orthogonalLoop=1;jettySize=auto;html=1;" edge="1" parent="WIyWlLk6GJQsqaUBKTNV-1" source="nQuOsH5TMNyaBFGdxfSk-11" target="nQuOsH5TMNyaBFGdxfSk-25">
          <mxGeometry relative="1" as="geometry" />
        </mxCell>
        <mxCell id="nQuOsH5TMNyaBFGdxfSk-11" value="解析excel 文件成dtoItems对象集合" style="rounded=1;whiteSpace=wrap;html=1;fontSize=12;glass=0;strokeWidth=1;shadow=0;" vertex="1" parent="WIyWlLk6GJQsqaUBKTNV-1">
          <mxGeometry x="600" y="78" width="120" height="40" as="geometry" />
        </mxCell>
        <mxCell id="nQuOsH5TMNyaBFGdxfSk-13" value="" style="edgeStyle=orthogonalEdgeStyle;rounded=0;orthogonalLoop=1;jettySize=auto;html=1;entryX=0.5;entryY=0;entryDx=0;entryDy=0;" edge="1" parent="WIyWlLk6GJQsqaUBKTNV-1" source="nQuOsH5TMNyaBFGdxfSk-17" target="nQuOsH5TMNyaBFGdxfSk-23">
          <mxGeometry relative="1" as="geometry">
            <mxPoint x="520" y="233" as="targetPoint" />
          </mxGeometry>
        </mxCell>
        <mxCell id="nQuOsH5TMNyaBFGdxfSk-14" value="no" style="edgeLabel;html=1;align=center;verticalAlign=middle;resizable=0;points=[];" vertex="1" connectable="0" parent="nQuOsH5TMNyaBFGdxfSk-13">
          <mxGeometry x="-0.7738" y="-2" relative="1" as="geometry">
            <mxPoint x="50" y="-2" as="offset" />
          </mxGeometry>
        </mxCell>
        <mxCell id="nQuOsH5TMNyaBFGdxfSk-15" value="" style="edgeStyle=orthogonalEdgeStyle;rounded=0;orthogonalLoop=1;jettySize=auto;html=1;exitX=0;exitY=0.5;exitDx=0;exitDy=0;" edge="1" parent="WIyWlLk6GJQsqaUBKTNV-1" source="nQuOsH5TMNyaBFGdxfSk-17" target="nQuOsH5TMNyaBFGdxfSk-22">
          <mxGeometry relative="1" as="geometry" />
        </mxCell>
        <mxCell id="nQuOsH5TMNyaBFGdxfSk-16" value="yes" style="edgeLabel;html=1;align=center;verticalAlign=middle;resizable=0;points=[];" vertex="1" connectable="0" parent="nQuOsH5TMNyaBFGdxfSk-15">
          <mxGeometry x="-0.2706" relative="1" as="geometry">
            <mxPoint as="offset" />
          </mxGeometry>
        </mxCell>
        <mxCell id="nQuOsH5TMNyaBFGdxfSk-17" value="&lt;div&gt;check &lt;br&gt;&lt;/div&gt;&lt;div&gt;quantity &amp;gt; 0&lt;br&gt;&lt;/div&gt;" style="rhombus;whiteSpace=wrap;html=1;" vertex="1" parent="WIyWlLk6GJQsqaUBKTNV-1">
          <mxGeometry x="612.5" y="277.5" width="95" height="90" as="geometry" />
        </mxCell>
        <mxCell id="nQuOsH5TMNyaBFGdxfSk-18" value="" style="edgeStyle=orthogonalEdgeStyle;rounded=0;orthogonalLoop=1;jettySize=auto;html=1;" edge="1" parent="WIyWlLk6GJQsqaUBKTNV-1" source="nQuOsH5TMNyaBFGdxfSk-22" target="nQuOsH5TMNyaBFGdxfSk-30">
          <mxGeometry relative="1" as="geometry">
            <mxPoint x="571.25" y="627.5" as="targetPoint" />
          </mxGeometry>
        </mxCell>
        <mxCell id="nQuOsH5TMNyaBFGdxfSk-19" value="yes" style="edgeLabel;html=1;align=center;verticalAlign=middle;resizable=0;points=[];" vertex="1" connectable="0" parent="nQuOsH5TMNyaBFGdxfSk-18">
          <mxGeometry x="-0.2819" y="1" relative="1" as="geometry">
            <mxPoint as="offset" />
          </mxGeometry>
        </mxCell>
        <mxCell id="nQuOsH5TMNyaBFGdxfSk-20" value="" style="edgeStyle=orthogonalEdgeStyle;rounded=0;orthogonalLoop=1;jettySize=auto;html=1;entryX=0.5;entryY=1;entryDx=0;entryDy=0;exitX=1;exitY=0.5;exitDx=0;exitDy=0;" edge="1" parent="WIyWlLk6GJQsqaUBKTNV-1" source="nQuOsH5TMNyaBFGdxfSk-22" target="nQuOsH5TMNyaBFGdxfSk-23">
          <mxGeometry relative="1" as="geometry">
            <mxPoint x="472.5" y="410.5" as="targetPoint" />
            <Array as="points">
              <mxPoint x="779" y="466" />
            </Array>
          </mxGeometry>
        </mxCell>
        <mxCell id="nQuOsH5TMNyaBFGdxfSk-21" value="no" style="edgeLabel;html=1;align=center;verticalAlign=middle;resizable=0;points=[];" vertex="1" connectable="0" parent="nQuOsH5TMNyaBFGdxfSk-20">
          <mxGeometry x="0.1635" y="-3" relative="1" as="geometry">
            <mxPoint x="-66" y="-4" as="offset" />
          </mxGeometry>
        </mxCell>
        <mxCell id="nQuOsH5TMNyaBFGdxfSk-22" value="&lt;div&gt;check item &lt;br&gt;&lt;/div&gt;master 信息是否正确" style="rhombus;whiteSpace=wrap;html=1;" vertex="1" parent="WIyWlLk6GJQsqaUBKTNV-1">
          <mxGeometry x="500" y="417.5" width="142.5" height="95" as="geometry" />
        </mxCell>
        <mxCell id="nQuOsH5TMNyaBFGdxfSk-23" value="添加错误日志到errorMessage里面" style="rounded=1;whiteSpace=wrap;html=1;" vertex="1" parent="WIyWlLk6GJQsqaUBKTNV-1">
          <mxGeometry x="724" y="348" width="110" height="40" as="geometry" />
        </mxCell>
        <mxCell id="nQuOsH5TMNyaBFGdxfSk-24" value="" style="edgeStyle=orthogonalEdgeStyle;rounded=0;orthogonalLoop=1;jettySize=auto;html=1;" edge="1" parent="WIyWlLk6GJQsqaUBKTNV-1" source="nQuOsH5TMNyaBFGdxfSk-25" target="nQuOsH5TMNyaBFGdxfSk-17">
          <mxGeometry relative="1" as="geometry" />
        </mxCell>
        <mxCell id="nQuOsH5TMNyaBFGdxfSk-25" value="循环解析excel 文件成对象集合" style="rounded=1;whiteSpace=wrap;html=1;" vertex="1" parent="WIyWlLk6GJQsqaUBKTNV-1">
          <mxGeometry x="600" y="188" width="120" height="60" as="geometry" />
        </mxCell>
        <mxCell id="nQuOsH5TMNyaBFGdxfSk-26" value="" style="edgeStyle=orthogonalEdgeStyle;rounded=0;orthogonalLoop=1;jettySize=auto;html=1;entryX=0;entryY=0.5;entryDx=0;entryDy=0;" edge="1" parent="WIyWlLk6GJQsqaUBKTNV-1" source="nQuOsH5TMNyaBFGdxfSk-30" target="nQuOsH5TMNyaBFGdxfSk-33">
          <mxGeometry relative="1" as="geometry">
            <mxPoint x="772.5" y="628" as="targetPoint" />
          </mxGeometry>
        </mxCell>
        <mxCell id="nQuOsH5TMNyaBFGdxfSk-27" value="&lt;div&gt;否&lt;/div&gt;" style="edgeLabel;html=1;align=center;verticalAlign=middle;resizable=0;points=[];" vertex="1" connectable="0" parent="nQuOsH5TMNyaBFGdxfSk-26">
          <mxGeometry x="-0.2625" y="-1" relative="1" as="geometry">
            <mxPoint as="offset" />
          </mxGeometry>
        </mxCell>
        <mxCell id="nQuOsH5TMNyaBFGdxfSk-28" value="" style="edgeStyle=orthogonalEdgeStyle;rounded=0;orthogonalLoop=1;jettySize=auto;html=1;entryX=1;entryY=0.5;entryDx=0;entryDy=0;" edge="1" parent="WIyWlLk6GJQsqaUBKTNV-1" source="nQuOsH5TMNyaBFGdxfSk-30" target="nQuOsH5TMNyaBFGdxfSk-57">
          <mxGeometry relative="1" as="geometry">
            <mxPoint x="410" y="268" as="targetPoint" />
            <Array as="points">
              <mxPoint x="390" y="623" />
              <mxPoint x="390" y="787" />
            </Array>
          </mxGeometry>
        </mxCell>
        <mxCell id="nQuOsH5TMNyaBFGdxfSk-29" value="是" style="edgeLabel;html=1;align=center;verticalAlign=middle;resizable=0;points=[];" vertex="1" connectable="0" parent="nQuOsH5TMNyaBFGdxfSk-28">
          <mxGeometry x="-0.4317" y="-1" relative="1" as="geometry">
            <mxPoint as="offset" />
          </mxGeometry>
        </mxCell>
        <mxCell id="nQuOsH5TMNyaBFGdxfSk-30" value="&lt;div&gt;chek SpecNo&lt;/div&gt;&lt;div&gt;是否为空&lt;br&gt;&lt;/div&gt;" style="rhombus;whiteSpace=wrap;html=1;" vertex="1" parent="WIyWlLk6GJQsqaUBKTNV-1">
          <mxGeometry x="513.75" y="577.5" width="115" height="90" as="geometry" />
        </mxCell>
        <mxCell id="nQuOsH5TMNyaBFGdxfSk-31" value="" style="edgeStyle=orthogonalEdgeStyle;rounded=0;orthogonalLoop=1;jettySize=auto;html=1;entryX=0;entryY=0.5;entryDx=0;entryDy=0;" edge="1" parent="WIyWlLk6GJQsqaUBKTNV-1" source="nQuOsH5TMNyaBFGdxfSk-33" target="nQuOsH5TMNyaBFGdxfSk-37">
          <mxGeometry relative="1" as="geometry">
            <mxPoint x="940" y="623" as="targetPoint" />
          </mxGeometry>
        </mxCell>
        <mxCell id="nQuOsH5TMNyaBFGdxfSk-32" value="" style="edgeStyle=orthogonalEdgeStyle;rounded=0;orthogonalLoop=1;jettySize=auto;html=1;" edge="1" parent="WIyWlLk6GJQsqaUBKTNV-1" source="nQuOsH5TMNyaBFGdxfSk-33" target="nQuOsH5TMNyaBFGdxfSk-39">
          <mxGeometry relative="1" as="geometry" />
        </mxCell>
        <mxCell id="nQuOsH5TMNyaBFGdxfSk-33" value="根据specNo查询记录" style="rounded=1;whiteSpace=wrap;html=1;" vertex="1" parent="WIyWlLk6GJQsqaUBKTNV-1">
          <mxGeometry x="729" y="593" width="100" height="60" as="geometry" />
        </mxCell>
        <mxCell id="nQuOsH5TMNyaBFGdxfSk-34" value="" style="edgeStyle=orthogonalEdgeStyle;rounded=0;orthogonalLoop=1;jettySize=auto;html=1;entryX=0.5;entryY=1;entryDx=0;entryDy=0;exitX=0.5;exitY=0;exitDx=0;exitDy=0;" edge="1" parent="WIyWlLk6GJQsqaUBKTNV-1" source="nQuOsH5TMNyaBFGdxfSk-37" target="nQuOsH5TMNyaBFGdxfSk-23">
          <mxGeometry relative="1" as="geometry">
            <mxPoint x="945" y="478" as="targetPoint" />
            <Array as="points">
              <mxPoint x="968" y="418" />
              <mxPoint x="779" y="418" />
            </Array>
          </mxGeometry>
        </mxCell>
        <mxCell id="nQuOsH5TMNyaBFGdxfSk-35" value="no" style="edgeLabel;html=1;align=center;verticalAlign=middle;resizable=0;points=[];" vertex="1" connectable="0" parent="nQuOsH5TMNyaBFGdxfSk-34">
          <mxGeometry x="-0.6577" y="-3" relative="1" as="geometry">
            <mxPoint y="1" as="offset" />
          </mxGeometry>
        </mxCell>
        <mxCell id="nQuOsH5TMNyaBFGdxfSk-36" value="" style="edgeStyle=orthogonalEdgeStyle;rounded=0;orthogonalLoop=1;jettySize=auto;html=1;" edge="1" parent="WIyWlLk6GJQsqaUBKTNV-1" source="nQuOsH5TMNyaBFGdxfSk-37" target="nQuOsH5TMNyaBFGdxfSk-44">
          <mxGeometry relative="1" as="geometry" />
        </mxCell>
        <mxCell id="nQuOsH5TMNyaBFGdxfSk-37" value="&lt;div&gt;check statu是否&lt;/div&gt;&lt;div&gt;In-use&lt;br&gt;&lt;/div&gt;" style="rhombus;whiteSpace=wrap;html=1;" vertex="1" parent="WIyWlLk6GJQsqaUBKTNV-1">
          <mxGeometry x="912.5" y="575" width="110" height="95" as="geometry" />
        </mxCell>
        <mxCell id="nQuOsH5TMNyaBFGdxfSk-38" value="" style="edgeStyle=orthogonalEdgeStyle;rounded=0;orthogonalLoop=1;jettySize=auto;html=1;" edge="1" parent="WIyWlLk6GJQsqaUBKTNV-1" source="nQuOsH5TMNyaBFGdxfSk-39" target="nQuOsH5TMNyaBFGdxfSk-23">
          <mxGeometry relative="1" as="geometry" />
        </mxCell>
        <mxCell id="nQuOsH5TMNyaBFGdxfSk-39" value="查询为空" style="whiteSpace=wrap;html=1;rounded=1;" vertex="1" parent="WIyWlLk6GJQsqaUBKTNV-1">
          <mxGeometry x="733.5" y="498" width="91" height="40" as="geometry" />
        </mxCell>
        <mxCell id="nQuOsH5TMNyaBFGdxfSk-40" value="" style="edgeStyle=orthogonalEdgeStyle;rounded=0;orthogonalLoop=1;jettySize=auto;html=1;entryX=0.5;entryY=1;entryDx=0;entryDy=0;" edge="1" parent="WIyWlLk6GJQsqaUBKTNV-1" source="nQuOsH5TMNyaBFGdxfSk-44" target="nQuOsH5TMNyaBFGdxfSk-23">
          <mxGeometry relative="1" as="geometry">
            <mxPoint x="1000" y="418" as="targetPoint" />
            <Array as="points">
              <mxPoint x="1050" y="787" />
              <mxPoint x="1050" y="418" />
              <mxPoint x="779" y="418" />
            </Array>
          </mxGeometry>
        </mxCell>
        <mxCell id="nQuOsH5TMNyaBFGdxfSk-41" value="yes" style="edgeLabel;html=1;align=center;verticalAlign=middle;resizable=0;points=[];" vertex="1" connectable="0" parent="nQuOsH5TMNyaBFGdxfSk-40">
          <mxGeometry x="-0.3093" y="1" relative="1" as="geometry">
            <mxPoint y="81" as="offset" />
          </mxGeometry>
        </mxCell>
        <mxCell id="nQuOsH5TMNyaBFGdxfSk-42" value="" style="edgeStyle=orthogonalEdgeStyle;rounded=0;orthogonalLoop=1;jettySize=auto;html=1;" edge="1" parent="WIyWlLk6GJQsqaUBKTNV-1" source="nQuOsH5TMNyaBFGdxfSk-44" target="nQuOsH5TMNyaBFGdxfSk-49">
          <mxGeometry relative="1" as="geometry" />
        </mxCell>
        <mxCell id="nQuOsH5TMNyaBFGdxfSk-43" value="no" style="edgeLabel;html=1;align=center;verticalAlign=middle;resizable=0;points=[];" vertex="1" connectable="0" parent="nQuOsH5TMNyaBFGdxfSk-42">
          <mxGeometry x="-0.2414" y="1" relative="1" as="geometry">
            <mxPoint as="offset" />
          </mxGeometry>
        </mxCell>
        <mxCell id="nQuOsH5TMNyaBFGdxfSk-44" value="&lt;div&gt;specType== one-off&lt;/div&gt;&lt;div&gt;&amp;amp;&amp;amp; OneOffUsedFlg==true&lt;/div&gt;" style="rhombus;whiteSpace=wrap;html=1;" vertex="1" parent="WIyWlLk6GJQsqaUBKTNV-1">
          <mxGeometry x="880" y="728" width="175" height="117.5" as="geometry" />
        </mxCell>
        <mxCell id="nQuOsH5TMNyaBFGdxfSk-45" value="" style="edgeStyle=orthogonalEdgeStyle;rounded=0;orthogonalLoop=1;jettySize=auto;html=1;entryX=0.5;entryY=1;entryDx=0;entryDy=0;exitX=0.5;exitY=1;exitDx=0;exitDy=0;" edge="1" parent="WIyWlLk6GJQsqaUBKTNV-1" source="nQuOsH5TMNyaBFGdxfSk-49" target="nQuOsH5TMNyaBFGdxfSk-23">
          <mxGeometry relative="1" as="geometry">
            <mxPoint x="690" y="968" as="targetPoint" />
            <Array as="points">
              <mxPoint x="737" y="878" />
              <mxPoint x="1100" y="878" />
              <mxPoint x="1100" y="418" />
              <mxPoint x="779" y="418" />
            </Array>
          </mxGeometry>
        </mxCell>
        <mxCell id="nQuOsH5TMNyaBFGdxfSk-46" value="no" style="edgeLabel;html=1;align=center;verticalAlign=middle;resizable=0;points=[];" vertex="1" connectable="0" parent="nQuOsH5TMNyaBFGdxfSk-45">
          <mxGeometry x="-0.5608" y="-4" relative="1" as="geometry">
            <mxPoint x="1" as="offset" />
          </mxGeometry>
        </mxCell>
        <mxCell id="nQuOsH5TMNyaBFGdxfSk-47" value="" style="edgeStyle=orthogonalEdgeStyle;rounded=0;orthogonalLoop=1;jettySize=auto;html=1;" edge="1" parent="WIyWlLk6GJQsqaUBKTNV-1" source="nQuOsH5TMNyaBFGdxfSk-49" target="nQuOsH5TMNyaBFGdxfSk-53">
          <mxGeometry relative="1" as="geometry" />
        </mxCell>
        <mxCell id="nQuOsH5TMNyaBFGdxfSk-48" value="yes" style="edgeLabel;html=1;align=center;verticalAlign=middle;resizable=0;points=[];" vertex="1" connectable="0" parent="nQuOsH5TMNyaBFGdxfSk-47">
          <mxGeometry x="-0.2709" y="3" relative="1" as="geometry">
            <mxPoint x="1" as="offset" />
          </mxGeometry>
        </mxCell>
        <mxCell id="nQuOsH5TMNyaBFGdxfSk-49" value="&lt;div&gt;check specItemCode&lt;/div&gt;&lt;div&gt;和permitItemCode&lt;/div&gt;&lt;div&gt;是否相同&lt;br&gt;&lt;/div&gt;" style="rhombus;whiteSpace=wrap;html=1;" vertex="1" parent="WIyWlLk6GJQsqaUBKTNV-1">
          <mxGeometry x="649.5" y="728" width="175" height="117.5" as="geometry" />
        </mxCell>
        <mxCell id="nQuOsH5TMNyaBFGdxfSk-50" value="" style="edgeStyle=orthogonalEdgeStyle;rounded=0;orthogonalLoop=1;jettySize=auto;html=1;entryX=0.5;entryY=1;entryDx=0;entryDy=0;exitX=0.5;exitY=1;exitDx=0;exitDy=0;" edge="1" parent="WIyWlLk6GJQsqaUBKTNV-1" source="nQuOsH5TMNyaBFGdxfSk-53" target="nQuOsH5TMNyaBFGdxfSk-23">
          <mxGeometry relative="1" as="geometry">
            <mxPoint x="487.5" y="954.25" as="targetPoint" />
            <Array as="points">
              <mxPoint x="518" y="878" />
              <mxPoint x="1100" y="878" />
              <mxPoint x="1100" y="418" />
              <mxPoint x="779" y="418" />
            </Array>
          </mxGeometry>
        </mxCell>
        <mxCell id="nQuOsH5TMNyaBFGdxfSk-51" value="" style="edgeStyle=orthogonalEdgeStyle;rounded=0;orthogonalLoop=1;jettySize=auto;html=1;entryX=1;entryY=0.5;entryDx=0;entryDy=0;" edge="1" parent="WIyWlLk6GJQsqaUBKTNV-1" source="nQuOsH5TMNyaBFGdxfSk-53" target="nQuOsH5TMNyaBFGdxfSk-57">
          <mxGeometry relative="1" as="geometry">
            <mxPoint x="400" y="786.8" as="targetPoint" />
          </mxGeometry>
        </mxCell>
        <mxCell id="nQuOsH5TMNyaBFGdxfSk-52" value="yes" style="edgeLabel;html=1;align=center;verticalAlign=middle;resizable=0;points=[];" vertex="1" connectable="0" parent="nQuOsH5TMNyaBFGdxfSk-51">
          <mxGeometry x="0.2271" y="-1" relative="1" as="geometry">
            <mxPoint as="offset" />
          </mxGeometry>
        </mxCell>
        <mxCell id="nQuOsH5TMNyaBFGdxfSk-53" value="&lt;div&gt;ImportQuantity&lt;/div&gt;&lt;div&gt;&amp;gt;&lt;br&gt;&lt;/div&gt;&lt;div&gt;specBalanceQuantity&lt;/div&gt;&lt;div&gt;&lt;br&gt;&lt;/div&gt;" style="rhombus;whiteSpace=wrap;html=1;" vertex="1" parent="WIyWlLk6GJQsqaUBKTNV-1">
          <mxGeometry x="430" y="728" width="175" height="117.5" as="geometry" />
        </mxCell>
        <mxCell id="nQuOsH5TMNyaBFGdxfSk-54" value="" style="edgeStyle=orthogonalEdgeStyle;rounded=0;orthogonalLoop=1;jettySize=auto;html=1;entryX=0;entryY=0.5;entryDx=0;entryDy=0;exitX=0.5;exitY=0;exitDx=0;exitDy=0;" edge="1" parent="WIyWlLk6GJQsqaUBKTNV-1" source="nQuOsH5TMNyaBFGdxfSk-57" target="nQuOsH5TMNyaBFGdxfSk-25">
          <mxGeometry relative="1" as="geometry">
            <mxPoint x="330" y="646.75" as="targetPoint" />
            <Array as="points">
              <mxPoint x="260" y="218" />
            </Array>
          </mxGeometry>
        </mxCell>
        <mxCell id="nQuOsH5TMNyaBFGdxfSk-55" value="否" style="edgeLabel;html=1;align=center;verticalAlign=middle;resizable=0;points=[];" vertex="1" connectable="0" parent="nQuOsH5TMNyaBFGdxfSk-54">
          <mxGeometry x="0.286" relative="1" as="geometry">
            <mxPoint as="offset" />
          </mxGeometry>
        </mxCell>
        <mxCell id="nQuOsH5TMNyaBFGdxfSk-60" value="" style="edgeStyle=orthogonalEdgeStyle;rounded=0;orthogonalLoop=1;jettySize=auto;html=1;" edge="1" parent="WIyWlLk6GJQsqaUBKTNV-1" source="nQuOsH5TMNyaBFGdxfSk-57" target="nQuOsH5TMNyaBFGdxfSk-59">
          <mxGeometry relative="1" as="geometry" />
        </mxCell>
        <mxCell id="nQuOsH5TMNyaBFGdxfSk-57" value="&lt;div&gt;检查是否&lt;/div&gt;&lt;div&gt;最后一条记录&lt;br&gt;&lt;/div&gt;" style="rhombus;whiteSpace=wrap;html=1;" vertex="1" parent="WIyWlLk6GJQsqaUBKTNV-1">
          <mxGeometry x="210" y="741.75" width="100" height="90" as="geometry" />
        </mxCell>
        <mxCell id="nQuOsH5TMNyaBFGdxfSk-61" style="edgeStyle=orthogonalEdgeStyle;rounded=0;orthogonalLoop=1;jettySize=auto;html=1;exitX=0;exitY=0.5;exitDx=0;exitDy=0;" edge="1" parent="WIyWlLk6GJQsqaUBKTNV-1" source="nQuOsH5TMNyaBFGdxfSk-59" target="nQuOsH5TMNyaBFGdxfSk-0">
          <mxGeometry relative="1" as="geometry" />
        </mxCell>
        <mxCell id="nQuOsH5TMNyaBFGdxfSk-62" value="yes" style="edgeLabel;html=1;align=center;verticalAlign=middle;resizable=0;points=[];" vertex="1" connectable="0" parent="nQuOsH5TMNyaBFGdxfSk-61">
          <mxGeometry x="-0.9264" y="-1" relative="1" as="geometry">
            <mxPoint x="1" as="offset" />
          </mxGeometry>
        </mxCell>
        <mxCell id="nQuOsH5TMNyaBFGdxfSk-65" value="" style="edgeStyle=orthogonalEdgeStyle;rounded=0;orthogonalLoop=1;jettySize=auto;html=1;" edge="1" parent="WIyWlLk6GJQsqaUBKTNV-1" source="nQuOsH5TMNyaBFGdxfSk-59" target="nQuOsH5TMNyaBFGdxfSk-64">
          <mxGeometry relative="1" as="geometry" />
        </mxCell>
        <mxCell id="nQuOsH5TMNyaBFGdxfSk-66" value="no" style="edgeLabel;html=1;align=center;verticalAlign=middle;resizable=0;points=[];" vertex="1" connectable="0" parent="nQuOsH5TMNyaBFGdxfSk-65">
          <mxGeometry x="-0.2513" y="1" relative="1" as="geometry">
            <mxPoint x="1" as="offset" />
          </mxGeometry>
        </mxCell>
        <mxCell id="nQuOsH5TMNyaBFGdxfSk-59" value="&lt;div&gt;check&lt;/div&gt;&lt;div&gt;errorMessage&amp;gt;0&lt;/div&gt;" style="rhombus;whiteSpace=wrap;html=1;" vertex="1" parent="WIyWlLk6GJQsqaUBKTNV-1">
          <mxGeometry x="202.5" y="908" width="115" height="90" as="geometry" />
        </mxCell>
        <mxCell id="nQuOsH5TMNyaBFGdxfSk-68" value="" style="edgeStyle=orthogonalEdgeStyle;rounded=0;orthogonalLoop=1;jettySize=auto;html=1;" edge="1" parent="WIyWlLk6GJQsqaUBKTNV-1" source="nQuOsH5TMNyaBFGdxfSk-64" target="nQuOsH5TMNyaBFGdxfSk-67">
          <mxGeometry relative="1" as="geometry" />
        </mxCell>
        <mxCell id="nQuOsH5TMNyaBFGdxfSk-69" value="no" style="edgeLabel;html=1;align=center;verticalAlign=middle;resizable=0;points=[];" vertex="1" connectable="0" parent="nQuOsH5TMNyaBFGdxfSk-68">
          <mxGeometry x="-0.664" y="1" relative="1" as="geometry">
            <mxPoint as="offset" />
          </mxGeometry>
        </mxCell>
        <mxCell id="nQuOsH5TMNyaBFGdxfSk-71" value="" style="edgeStyle=orthogonalEdgeStyle;rounded=0;orthogonalLoop=1;jettySize=auto;html=1;" edge="1" parent="WIyWlLk6GJQsqaUBKTNV-1" source="nQuOsH5TMNyaBFGdxfSk-64" target="nQuOsH5TMNyaBFGdxfSk-70">
          <mxGeometry relative="1" as="geometry" />
        </mxCell>
        <mxCell id="nQuOsH5TMNyaBFGdxfSk-64" value="&lt;div&gt;dbItem和&lt;/div&gt;&lt;div&gt;dtoItem数量是否一样&lt;br&gt;&lt;/div&gt;" style="rhombus;whiteSpace=wrap;html=1;" vertex="1" parent="WIyWlLk6GJQsqaUBKTNV-1">
          <mxGeometry x="415" y="913" width="85" height="80" as="geometry" />
        </mxCell>
        <mxCell id="nQuOsH5TMNyaBFGdxfSk-89" style="edgeStyle=orthogonalEdgeStyle;rounded=0;orthogonalLoop=1;jettySize=auto;html=1;entryX=0.5;entryY=0;entryDx=0;entryDy=0;" edge="1" parent="WIyWlLk6GJQsqaUBKTNV-1" source="nQuOsH5TMNyaBFGdxfSk-67" target="nQuOsH5TMNyaBFGdxfSk-91">
          <mxGeometry relative="1" as="geometry">
            <mxPoint x="982.5" y="1153" as="targetPoint" />
          </mxGeometry>
        </mxCell>
        <mxCell id="nQuOsH5TMNyaBFGdxfSk-67" value="添加错误日志到errorMessage里面" style="rounded=1;whiteSpace=wrap;html=1;" vertex="1" parent="WIyWlLk6GJQsqaUBKTNV-1">
          <mxGeometry x="555" y="923" width="120" height="60" as="geometry" />
        </mxCell>
        <mxCell id="nQuOsH5TMNyaBFGdxfSk-73" value="" style="edgeStyle=orthogonalEdgeStyle;rounded=0;orthogonalLoop=1;jettySize=auto;html=1;" edge="1" parent="WIyWlLk6GJQsqaUBKTNV-1" source="nQuOsH5TMNyaBFGdxfSk-70" target="nQuOsH5TMNyaBFGdxfSk-72">
          <mxGeometry relative="1" as="geometry" />
        </mxCell>
        <mxCell id="nQuOsH5TMNyaBFGdxfSk-70" value="循环dtoItem" style="rounded=1;whiteSpace=wrap;html=1;" vertex="1" parent="WIyWlLk6GJQsqaUBKTNV-1">
          <mxGeometry x="397.5" y="1028" width="120" height="60" as="geometry" />
        </mxCell>
        <mxCell id="nQuOsH5TMNyaBFGdxfSk-76" value="" style="edgeStyle=orthogonalEdgeStyle;rounded=0;orthogonalLoop=1;jettySize=auto;html=1;" edge="1" parent="WIyWlLk6GJQsqaUBKTNV-1" source="nQuOsH5TMNyaBFGdxfSk-72" target="nQuOsH5TMNyaBFGdxfSk-75">
          <mxGeometry relative="1" as="geometry" />
        </mxCell>
        <mxCell id="nQuOsH5TMNyaBFGdxfSk-79" value="no" style="edgeLabel;html=1;align=center;verticalAlign=middle;resizable=0;points=[];" vertex="1" connectable="0" parent="nQuOsH5TMNyaBFGdxfSk-76">
          <mxGeometry x="-0.6862" y="-4" relative="1" as="geometry">
            <mxPoint x="24" y="-4" as="offset" />
          </mxGeometry>
        </mxCell>
        <mxCell id="nQuOsH5TMNyaBFGdxfSk-78" value="" style="edgeStyle=orthogonalEdgeStyle;rounded=0;orthogonalLoop=1;jettySize=auto;html=1;" edge="1" parent="WIyWlLk6GJQsqaUBKTNV-1" source="nQuOsH5TMNyaBFGdxfSk-72" target="nQuOsH5TMNyaBFGdxfSk-77">
          <mxGeometry relative="1" as="geometry" />
        </mxCell>
        <mxCell id="nQuOsH5TMNyaBFGdxfSk-80" value="yes" style="edgeLabel;html=1;align=center;verticalAlign=middle;resizable=0;points=[];" vertex="1" connectable="0" parent="nQuOsH5TMNyaBFGdxfSk-78">
          <mxGeometry x="-0.7597" y="-1" relative="1" as="geometry">
            <mxPoint y="1" as="offset" />
          </mxGeometry>
        </mxCell>
        <mxCell id="nQuOsH5TMNyaBFGdxfSk-72" value="&lt;div&gt;seq&amp;amp;itemCode&amp;amp;&lt;/div&gt;&lt;div&gt;lotNo是否能在dbitem里&lt;/div&gt;&lt;div&gt;找出记录&lt;/div&gt;" style="rhombus;whiteSpace=wrap;html=1;" vertex="1" parent="WIyWlLk6GJQsqaUBKTNV-1">
          <mxGeometry x="569.5" y="1005.5" width="138" height="105" as="geometry" />
        </mxCell>
        <mxCell id="nQuOsH5TMNyaBFGdxfSk-75" value="&lt;div&gt;&lt;br&gt;&lt;/div&gt;&lt;div&gt;添加错误日志到noExistMessage&lt;/div&gt;" style="rounded=1;whiteSpace=wrap;html=1;" vertex="1" parent="WIyWlLk6GJQsqaUBKTNV-1">
          <mxGeometry x="770" y="1028" width="120" height="60" as="geometry" />
        </mxCell>
        <mxCell id="nQuOsH5TMNyaBFGdxfSk-82" value="" style="edgeStyle=orthogonalEdgeStyle;rounded=0;orthogonalLoop=1;jettySize=auto;html=1;entryX=0.5;entryY=1;entryDx=0;entryDy=0;" edge="1" parent="WIyWlLk6GJQsqaUBKTNV-1" source="nQuOsH5TMNyaBFGdxfSk-77" target="nQuOsH5TMNyaBFGdxfSk-70">
          <mxGeometry relative="1" as="geometry">
            <mxPoint x="250" y="1193" as="targetPoint" />
          </mxGeometry>
        </mxCell>
        <mxCell id="nQuOsH5TMNyaBFGdxfSk-83" value="no" style="edgeLabel;html=1;align=center;verticalAlign=middle;resizable=0;points=[];" vertex="1" connectable="0" parent="nQuOsH5TMNyaBFGdxfSk-82">
          <mxGeometry x="-0.7962" y="2" relative="1" as="geometry">
            <mxPoint as="offset" />
          </mxGeometry>
        </mxCell>
        <mxCell id="nQuOsH5TMNyaBFGdxfSk-85" value="" style="edgeStyle=orthogonalEdgeStyle;rounded=0;orthogonalLoop=1;jettySize=auto;html=1;" edge="1" parent="WIyWlLk6GJQsqaUBKTNV-1" source="nQuOsH5TMNyaBFGdxfSk-77" target="nQuOsH5TMNyaBFGdxfSk-84">
          <mxGeometry relative="1" as="geometry" />
        </mxCell>
        <mxCell id="nQuOsH5TMNyaBFGdxfSk-86" value="yes" style="edgeLabel;html=1;align=center;verticalAlign=middle;resizable=0;points=[];" vertex="1" connectable="0" parent="nQuOsH5TMNyaBFGdxfSk-85">
          <mxGeometry x="-0.2678" y="-1" relative="1" as="geometry">
            <mxPoint x="1" as="offset" />
          </mxGeometry>
        </mxCell>
        <mxCell id="nQuOsH5TMNyaBFGdxfSk-77" value="&lt;div&gt;检查是否&lt;/div&gt;&lt;div&gt;最后一条记录&lt;br&gt;&lt;/div&gt;" style="rhombus;whiteSpace=wrap;html=1;" vertex="1" parent="WIyWlLk6GJQsqaUBKTNV-1">
          <mxGeometry x="588.5" y="1148" width="100" height="90" as="geometry" />
        </mxCell>
        <mxCell id="nQuOsH5TMNyaBFGdxfSk-88" value="" style="edgeStyle=orthogonalEdgeStyle;rounded=0;orthogonalLoop=1;jettySize=auto;html=1;entryX=0;entryY=0.5;entryDx=0;entryDy=0;" edge="1" parent="WIyWlLk6GJQsqaUBKTNV-1" source="nQuOsH5TMNyaBFGdxfSk-84" target="nQuOsH5TMNyaBFGdxfSk-91">
          <mxGeometry relative="1" as="geometry">
            <mxPoint x="942.5" y="1193" as="targetPoint" />
          </mxGeometry>
        </mxCell>
        <mxCell id="nQuOsH5TMNyaBFGdxfSk-84" value="合并noExistMessage到errorMessage集合" style="rounded=1;whiteSpace=wrap;html=1;" vertex="1" parent="WIyWlLk6GJQsqaUBKTNV-1">
          <mxGeometry x="740" y="1163" width="120" height="60" as="geometry" />
        </mxCell>
        <mxCell id="nQuOsH5TMNyaBFGdxfSk-92" style="edgeStyle=orthogonalEdgeStyle;rounded=0;orthogonalLoop=1;jettySize=auto;html=1;exitX=1;exitY=0.5;exitDx=0;exitDy=0;entryX=0.5;entryY=0;entryDx=0;entryDy=0;" edge="1" parent="WIyWlLk6GJQsqaUBKTNV-1" source="nQuOsH5TMNyaBFGdxfSk-91" target="nQuOsH5TMNyaBFGdxfSk-0">
          <mxGeometry relative="1" as="geometry">
            <Array as="points">
              <mxPoint x="1140" y="1193" />
              <mxPoint x="1140" y="10" />
              <mxPoint x="90" y="10" />
            </Array>
          </mxGeometry>
        </mxCell>
        <mxCell id="nQuOsH5TMNyaBFGdxfSk-93" value="yes" style="edgeLabel;html=1;align=center;verticalAlign=middle;resizable=0;points=[];" vertex="1" connectable="0" parent="nQuOsH5TMNyaBFGdxfSk-92">
          <mxGeometry x="-0.9738" relative="1" as="geometry">
            <mxPoint as="offset" />
          </mxGeometry>
        </mxCell>
        <mxCell id="nQuOsH5TMNyaBFGdxfSk-95" value="" style="edgeStyle=orthogonalEdgeStyle;rounded=0;orthogonalLoop=1;jettySize=auto;html=1;" edge="1" parent="WIyWlLk6GJQsqaUBKTNV-1" source="nQuOsH5TMNyaBFGdxfSk-91" target="nQuOsH5TMNyaBFGdxfSk-94">
          <mxGeometry relative="1" as="geometry" />
        </mxCell>
        <mxCell id="nQuOsH5TMNyaBFGdxfSk-91" value="&lt;div&gt;check&lt;/div&gt;&lt;div&gt;errorMessage&amp;gt;0&lt;/div&gt;" style="rhombus;whiteSpace=wrap;html=1;" vertex="1" parent="WIyWlLk6GJQsqaUBKTNV-1">
          <mxGeometry x="930" y="1148" width="115" height="90" as="geometry" />
        </mxCell>
        <mxCell id="nQuOsH5TMNyaBFGdxfSk-97" value="" style="edgeStyle=orthogonalEdgeStyle;rounded=0;orthogonalLoop=1;jettySize=auto;html=1;entryX=1;entryY=0.5;entryDx=0;entryDy=0;" edge="1" parent="WIyWlLk6GJQsqaUBKTNV-1" source="nQuOsH5TMNyaBFGdxfSk-94" target="nQuOsH5TMNyaBFGdxfSk-98">
          <mxGeometry relative="1" as="geometry">
            <mxPoint x="847.5" y="1320" as="targetPoint" />
          </mxGeometry>
        </mxCell>
        <mxCell id="nQuOsH5TMNyaBFGdxfSk-94" value="&lt;div&gt;过滤已经被shipment&lt;/div&gt;&lt;div&gt;使用的item&lt;br&gt;&lt;/div&gt;" style="rounded=1;whiteSpace=wrap;html=1;" vertex="1" parent="WIyWlLk6GJQsqaUBKTNV-1">
          <mxGeometry x="927.5" y="1290" width="120" height="60" as="geometry" />
        </mxCell>
        <mxCell id="nQuOsH5TMNyaBFGdxfSk-100" value="" style="edgeStyle=orthogonalEdgeStyle;rounded=0;orthogonalLoop=1;jettySize=auto;html=1;entryX=1;entryY=0.5;entryDx=0;entryDy=0;" edge="1" parent="WIyWlLk6GJQsqaUBKTNV-1" source="nQuOsH5TMNyaBFGdxfSk-98" target="nQuOsH5TMNyaBFGdxfSk-103">
          <mxGeometry relative="1" as="geometry">
            <mxPoint x="655" y="1320" as="targetPoint" />
          </mxGeometry>
        </mxCell>
        <mxCell id="nQuOsH5TMNyaBFGdxfSk-101" value="yes" style="edgeLabel;html=1;align=center;verticalAlign=middle;resizable=0;points=[];" vertex="1" connectable="0" parent="nQuOsH5TMNyaBFGdxfSk-100">
          <mxGeometry x="-0.2235" y="2" relative="1" as="geometry">
            <mxPoint as="offset" />
          </mxGeometry>
        </mxCell>
        <mxCell id="nQuOsH5TMNyaBFGdxfSk-117" style="edgeStyle=orthogonalEdgeStyle;rounded=0;orthogonalLoop=1;jettySize=auto;html=1;exitX=0.5;exitY=1;exitDx=0;exitDy=0;entryX=0.5;entryY=0;entryDx=0;entryDy=0;" edge="1" parent="WIyWlLk6GJQsqaUBKTNV-1" source="nQuOsH5TMNyaBFGdxfSk-98" target="nQuOsH5TMNyaBFGdxfSk-109">
          <mxGeometry relative="1" as="geometry">
            <Array as="points">
              <mxPoint x="805" y="1390" />
              <mxPoint x="330" y="1390" />
            </Array>
          </mxGeometry>
        </mxCell>
        <mxCell id="nQuOsH5TMNyaBFGdxfSk-118" value="no" style="edgeLabel;html=1;align=center;verticalAlign=middle;resizable=0;points=[];" vertex="1" connectable="0" parent="nQuOsH5TMNyaBFGdxfSk-117">
          <mxGeometry x="-0.651" y="3" relative="1" as="geometry">
            <mxPoint as="offset" />
          </mxGeometry>
        </mxCell>
        <mxCell id="nQuOsH5TMNyaBFGdxfSk-98" value="&lt;div&gt;permitApplStatus&lt;/div&gt;&lt;div&gt;== in-use&lt;br&gt;&lt;/div&gt;" style="rhombus;whiteSpace=wrap;html=1;" vertex="1" parent="WIyWlLk6GJQsqaUBKTNV-1">
          <mxGeometry x="740" y="1265" width="130" height="110" as="geometry" />
        </mxCell>
        <mxCell id="nQuOsH5TMNyaBFGdxfSk-105" value="" style="edgeStyle=orthogonalEdgeStyle;rounded=0;orthogonalLoop=1;jettySize=auto;html=1;entryX=1;entryY=0.5;entryDx=0;entryDy=0;" edge="1" parent="WIyWlLk6GJQsqaUBKTNV-1" source="nQuOsH5TMNyaBFGdxfSk-103" target="nQuOsH5TMNyaBFGdxfSk-107">
          <mxGeometry relative="1" as="geometry">
            <mxPoint x="317.5" y="1310" as="targetPoint" />
          </mxGeometry>
        </mxCell>
        <mxCell id="nQuOsH5TMNyaBFGdxfSk-106" value="yes" style="edgeLabel;html=1;align=center;verticalAlign=middle;resizable=0;points=[];" vertex="1" connectable="0" parent="nQuOsH5TMNyaBFGdxfSk-105">
          <mxGeometry x="-0.7391" y="-3" relative="1" as="geometry">
            <mxPoint x="-18" y="3" as="offset" />
          </mxGeometry>
        </mxCell>
        <mxCell id="nQuOsH5TMNyaBFGdxfSk-115" style="edgeStyle=orthogonalEdgeStyle;rounded=0;orthogonalLoop=1;jettySize=auto;html=1;entryX=0.5;entryY=0;entryDx=0;entryDy=0;" edge="1" parent="WIyWlLk6GJQsqaUBKTNV-1" source="nQuOsH5TMNyaBFGdxfSk-103" target="nQuOsH5TMNyaBFGdxfSk-109">
          <mxGeometry relative="1" as="geometry">
            <Array as="points">
              <mxPoint x="573" y="1390" />
              <mxPoint x="330" y="1390" />
            </Array>
          </mxGeometry>
        </mxCell>
        <mxCell id="nQuOsH5TMNyaBFGdxfSk-116" value="no" style="edgeLabel;html=1;align=center;verticalAlign=middle;resizable=0;points=[];" vertex="1" connectable="0" parent="nQuOsH5TMNyaBFGdxfSk-115">
          <mxGeometry x="-0.3698" y="-1" relative="1" as="geometry">
            <mxPoint as="offset" />
          </mxGeometry>
        </mxCell>
        <mxCell id="nQuOsH5TMNyaBFGdxfSk-103" value="check&lt;br&gt;&lt;div&gt;permitNo receivedDate&lt;/div&gt;&lt;div&gt;expiryDate是否为空&lt;/div&gt;&lt;div&gt;&lt;br&gt;&lt;/div&gt;" style="rhombus;whiteSpace=wrap;html=1;" vertex="1" parent="WIyWlLk6GJQsqaUBKTNV-1">
          <mxGeometry x="502.5" y="1263" width="140" height="115" as="geometry" />
        </mxCell>
        <mxCell id="nQuOsH5TMNyaBFGdxfSk-108" style="edgeStyle=orthogonalEdgeStyle;rounded=0;orthogonalLoop=1;jettySize=auto;html=1;entryX=0.5;entryY=1;entryDx=0;entryDy=0;" edge="1" parent="WIyWlLk6GJQsqaUBKTNV-1" source="nQuOsH5TMNyaBFGdxfSk-107" target="nQuOsH5TMNyaBFGdxfSk-0">
          <mxGeometry relative="1" as="geometry" />
        </mxCell>
        <mxCell id="nQuOsH5TMNyaBFGdxfSk-107" value="添加错误日志" style="rounded=1;whiteSpace=wrap;html=1;" vertex="1" parent="WIyWlLk6GJQsqaUBKTNV-1">
          <mxGeometry x="277.5" y="1290.5" width="120" height="60" as="geometry" />
        </mxCell>
        <mxCell id="nQuOsH5TMNyaBFGdxfSk-109" value="" style="rounded=1;whiteSpace=wrap;html=1;" vertex="1" parent="WIyWlLk6GJQsqaUBKTNV-1">
          <mxGeometry x="270" y="1410" width="120" height="60" as="geometry" />
        </mxCell>
      </root>
    </mxGraphModel>
  </diagram>
</mxfile>
